<?xml version="1.0" encoding="utf-8"?>
<!-- Generator: Adobe Illustrator 22.1.0, SVG Export Plug-In . SVG Version: 6.00 Build 0)  -->
<svg version="1.1" id="Layer_1" xmlns="http://www.w3.org/2000/svg" xmlns:xlink="http://www.w3.org/1999/xlink" x="0px" y="0px"
	 viewBox="0 0 28 28" style="enable-background:new 0 0 28 28;" xml:space="preserve">
<style type="text/css">
	.st0{fill:#3C863C;}
	.st1{filter:url(#Adobe_OpacityMaskFilter);}
	.st2{fill:#FFFFFF;}
	.st3{mask:url(#mask-2_1_);}
	.st4{filter:url(#Adobe_OpacityMaskFilter_1_);}
	.st5{mask:url(#mask-4_1_);fill:#FFFFFF;}
</style>
<title>Group</title>
<desc>Created with Sketch.</desc>
<g id="Desktop-Copy" transform="translate(-50.000000, -50.000000)">
	<g id="Group" transform="translate(50.000000, 50.000000)">
		<g id="Mask">
			<path id="path-1_1_" class="st0" d="M2,0h24c1.1,0,2,0.9,2,2v24c0,1.1-0.9,2-2,2H2c-1.1,0-2-0.9-2-2V2C0,0.9,0.9,0,2,0z"/>
		</g>
		<defs>
			<filter id="Adobe_OpacityMaskFilter" filterUnits="userSpaceOnUse" x="0" y="0" width="27.9" height="28">
				<feColorMatrix  type="matrix" values="1 0 0 0 0  0 1 0 0 0  0 0 1 0 0  0 0 0 1 0"/>
			</filter>
		</defs>
		<mask maskUnits="userSpaceOnUse" x="0" y="0" width="27.9" height="28" id="mask-2_1_">
			<g class="st1">
				<path id="path-1_2_" class="st2" d="M2,0h24c1.1,0,2,0.9,2,2v24c0,1.1-0.9,2-2,2H2c-1.1,0-2-0.9-2-2V2C0,0.9,0.9,0,2,0z"/>
			</g>
		</mask>
		<g id="Group-14" class="st3">
			<g id="Group-11">
				<g id="Clip-10">
				</g>
				<defs>
					<filter id="Adobe_OpacityMaskFilter_1_" filterUnits="userSpaceOnUse" x="0" y="0.1" width="27.9" height="27.9">
						<feColorMatrix  type="matrix" values="1 0 0 0 0  0 1 0 0 0  0 0 1 0 0  0 0 0 1 0"/>
					</filter>
				</defs>
				<mask maskUnits="userSpaceOnUse" x="0" y="0.1" width="27.9" height="27.9" id="mask-4_1_">
					<g class="st4">
						<polygon id="path-3_1_" class="st2" points="0,0.1 27.9,0.1 27.9,28 0,28 						"/>
					</g>
				</mask>
				<path id="Fill-9" class="st5" d="M19.4,24.6c-4.7,0-8.8-2.9-8.8-9.3V0.1H0V28h27.9V17.8C27.1,21.9,24.1,24.6,19.4,24.6"/>
			</g>
			<path id="Fill-12" class="st2" d="M19.5,19c2.6,0,3.4-2.3,3.4-4.5V0h-6.7v14.6C16.2,16.9,17.1,19,19.5,19"/>
		</g>
	</g>
</g>
</svg>
